# xmcd CD database file
#
# Track frame offsets:
#	150
#	48949
#	94864
#	139421
#	184987
#
# Disc length: 3037 seconds
#
# Revision: 0
# Processed by: cddbd v1.5.2PL0 Copyright (c) Steve Scherf et al.
# Submitted via: CDex 1.51
#
DISCID=440bdb05
DTITLE=David Arkenstone - Spa Reflections
DYEAR=2012
DGENRE=New Age
TTITLE0=Breathe
TTITLE1=Lightdancer
TTITLE2=Deep Blue
TTITLE3=Floating
TTITLE4=Star Drops
EXTD=YEAR: 2012
EXTT0=
EXTT1=
EXTT2=
EXTT3=
EXTT4=
PLAYORDER=
